<?xml version="1.0" encoding="UTF-8"?><svg id="Calque_1" xmlns="http://www.w3.org/2000/svg" viewBox="0 0 1376 1487.5"><path d="M415.36,1222.78h-14.78l-.3,1.21c4.22.9,4.83,1.2,2.72,6.94l-4.83,13.27c-2.11,5.43-3.01,6.03-7.84,6.94l-.3,1.2h22.32l4.83-8.75h-1.51c-2.72,3.02-6.03,6.94-10.86,6.94-3.62,0-4.22-.6-2.11-6.33l4.83-13.27c2.11-5.43,3.01-6.04,7.84-6.94v-1.21ZM431.64,1225.2c1.51,0,2.72-1.2,2.72-2.71s-1.21-2.72-2.72-2.72-2.72,1.2-2.72,2.72c.3,1.51,1.21,2.71,2.72,2.71M430.74,1233.34c.3-1.51-.6-2.41-1.2-2.41-3.32,0-6.94,3.01-8.75,6.93h.91c.9-1.51,2.71-3.01,4.52-3.32l-6.33,15.98c-.6,1.51.6,2.41,1.2,2.41,3.02,0,6.64-3.02,8.14-6.94h-.91c-.9,1.51-2.71,3.02-4.52,3.32l6.93-15.99ZM452.76,1235.45c0-3.32-1.21-4.52-3.62-4.52-2.71,0-5.43,3.01-8.14,6.63l6.64-17.79-.3-.3-6.93.91v.9l1.51.91c1.2.9.9,2.11-.3,4.82l-7.24,18.7c-.6,1.51-1.21,3.02-1.21,3.32,0,1.81,2.72,3.62,5.13,3.62,5.12.3,14.48-9.65,14.48-17.19M439.79,1249.93c-1.2,0-2.72-.9-2.72-1.81,0-.3.6-1.51,1.21-3.01l1.81-4.83c1.81-2.41,4.82-4.83,6.64-4.83.9,0,1.81.6,1.81,2.11,0,4.22-4.22,12.37-8.75,12.37M467.53,1245.11h-1.51c-1.81,2.11-3.62,3.62-5.43,3.62s-3.02-1.21-3.02-3.62c0-1.21,0-2.11.3-3.02l11.16-3.62c2.11-5.13-.3-7.54-3.62-7.54-5.43,0-11.46,8.74-11.46,16.58,0,3.62,1.81,5.43,4.22,5.43,3.62,0,6.64-2.72,9.35-7.84M463.61,1233.95c1.51,0,2.72,1.2,2.11,3.92l-6.93,1.51c1.2-3.01,3.01-5.43,4.82-5.43M488.34,1236.06c.91-2.72.3-4.83-1.81-4.83-2.41,0-3.01,1.81-5.43,6.94v-3.02c0-2.11-.6-3.92-2.72-3.92-2.41,0-4.22,3.62-6.03,6.94h.91c1.2-1.51,2.11-2.41,3.01-2.41s1.51,1.51,0,4.83l-4.22,9.65c-.9,1.81,0,3.02,1.81,3.02,1.21,0,1.51-.3,2.11-1.51l4.22-11.46c1.21-1.51,2.41-2.72,3.62-4.22h4.52ZM491.36,1234.25h3.02l-6.04,16.29c-.6,1.51.3,2.72,1.51,2.72,3.32,0,8.74-3.32,10.56-7.85h-.91c-1.51,1.51-4.22,3.62-6.94,4.22l5.43-15.08h5.43l.6-2.41h-5.43l2.11-5.73h-2.11l-3.32,5.43-3.92.6v1.81ZM514.58,1228.82l7.84-7.24v-.91h-4.22l-4.83,8.15h1.21ZM516.69,1245.11h-1.51c-1.81,2.11-3.62,3.62-5.43,3.62s-3.01-1.21-3.01-3.62c0-1.21,0-2.11.3-3.02l11.16-3.62c2.11-5.13-.3-7.54-3.62-7.54-5.43,0-11.46,8.74-11.46,16.58,0,3.62,1.81,5.43,4.22,5.43,3.62,0,6.94-2.72,9.35-7.84M513.07,1233.95c1.51,0,2.72,1.2,2.11,3.92l-6.93,1.51c.9-3.01,3.01-5.43,4.82-5.43M414.15,1271.34l7.85-5.43v-.91h-4.83l-4.22,6.33h1.2ZM410.83,1288.24c2.72,0,2.72,1.2,2.41,3.92h1.51l3.62-9.65h-1.81c-1.2,2.41-2.41,3.92-5.43,3.92h-5.73l3.01-8.14c.91-2.72,1.51-3.32,5.13-3.32h2.71c3.62,0,4.22.91,4.22,4.83h1.51l1.2-6.64h-22.32l-.3,1.2c4.22.91,4.83,1.21,2.72,6.94l-4.83,13.27c-2.11,5.43-3.02,6.03-7.84,6.93l-.6,1.51h24.73l4.53-6.94h-1.51c-3.02,2.41-6.64,5.12-11.46,5.12-6.64,0-6.03-.3-3.92-6.33l2.41-6.33h6.03v-.3ZM439.18,1305.72c0-2.71-2.41-3.62-6.03-4.53-3.32-.9-4.83-1.2-4.83-2.41,0-.91.6-1.81,2.11-2.72,5.43-.3,8.75-5.13,8.75-9.05,0-.9-.3-1.51-.3-2.11h4.53l.6-2.41h-7.24c-.9-.6-1.81-.91-3.01-.91-5.73,0-9.35,4.83-9.35,9.05,0,3.01,1.81,4.82,4.22,5.43-2.71,1.2-4.22,2.41-4.22,4.22,0,.9.3,1.51,1.21,2.11-6.03,1.81-8.45,3.92-8.45,6.64s3.62,3.92,8.14,3.92c7.54,0,13.87-3.92,13.87-7.24M430.14,1294.57c-1.21,0-1.81-1.21-1.81-2.41,0-3.62,1.81-9.05,5.13-9.05,1.2,0,1.81,1.21,1.81,2.41,0,3.62-1.81,9.05-5.12,9.05M421.99,1307.53c0-2.11,2.11-3.62,5.12-4.52.91.6,2.41.9,4.22,1.81,3.02.9,4.22,1.51,4.22,2.41,0,2.11-3.32,3.62-7.84,3.62-3.92-.3-5.73-1.21-5.73-3.32M463.01,1280.69h-1.81l-1.81,1.81h-.3c-9.35,0-17.19,10.25-17.19,17.79,0,2.11,1.2,3.32,3.32,3.32,2.41,0,4.83-3.32,7.24-6.93v1.2c-.3,3.62.9,5.73,2.71,5.73,2.41,0,4.22-3.62,6.04-6.93h-.91c-1.2,1.51-2.11,2.41-3.02,2.41s-1.51-1.51,0-4.83l5.74-13.58ZM446.12,1297.28c0-5.12,5.43-11.76,8.75-11.76.6,0,1.2,0,1.81.3l-3.32,8.75c-1.81,2.41-4.82,5.12-6.03,5.12-.9-.3-1.2-.9-1.2-2.41M467.53,1300l11.16-29.56-.3-.3-6.93.9v.91l1.51.9c1.2.91.9,1.81-.3,4.83l-8.75,23.22c-.6,1.2.3,2.71,1.51,2.71,3.32,0,6.63-3.01,8.14-6.93h-.91c-1.2,1.51-3.32,3.32-5.13,3.32M488.95,1275.87c1.51,0,2.72-1.21,2.72-2.72s-1.21-2.72-2.72-2.72-2.72,1.21-2.72,2.72c.3,1.51,1.21,2.72,2.72,2.72M488.04,1284.01c.3-1.51-.6-2.41-1.21-2.41-3.32,0-6.93,3.02-8.75,6.94h.91c.91-1.51,2.72-3.02,4.53-3.32l-6.03,15.98c-.6,1.51.6,2.41,1.2,2.41,3.02,0,6.64-3.01,8.14-6.93h-.9c-.91,1.51-2.72,3.01-4.53,3.32l6.64-15.98ZM492.87,1284.91h3.62l-6.03,16.29c-.6,1.51.3,2.72,1.51,2.72,3.32,0,8.74-3.32,10.56-7.84h-.91c-1.51,1.51-4.53,3.62-6.94,4.22l5.43-15.08h5.43l.6-2.41h-4.53l2.11-5.73h-2.11l-3.92,5.73-4.53.6v1.51h-.3ZM517.29,1279.49l7.85-7.24v-.91h-4.22l-4.83,8.14h1.2ZM519.4,1295.77h-1.51c-1.81,2.11-3.62,3.62-5.43,3.62s-3.02-1.2-3.02-3.62c0-.9,0-2.11.3-3.01l11.16-3.62c2.11-5.12-.3-7.54-3.62-7.54-5.43,0-11.46,8.75-11.46,16.59,0,3.62,1.81,5.43,4.22,5.43,3.62,0,6.64-3.01,9.35-7.84M515.48,1284.62c1.51,0,2.72,1.2,2.11,3.92l-6.93,1.51c1.2-3.02,3.32-5.43,4.82-5.43M406.01,1353.38l.3-1.2c-5.43-.91-6.03-.91-3.92-6.94l2.11-6.03h6.03c2.72,0,2.72,1.21,2.41,3.92h1.51l3.62-9.65h-1.51c-1.2,2.41-2.41,3.92-5.43,3.92h-5.73l3.01-8.45c.91-2.72,1.51-3.32,5.13-3.32h2.71c3.62,0,4.22.9,4.22,4.82h1.51l1.2-6.63h-22.32l-.6,1.51c4.22.9,4.83,1.2,2.72,6.93l-4.83,13.27c-2.11,5.43-3.01,6.03-7.84,6.94l-.3.9h15.98ZM437.07,1337.09c.91-2.72.3-4.83-1.81-4.83-2.41,0-3.01,1.81-5.43,6.94v-3.01c0-2.11-.6-3.93-2.72-3.93-2.41,0-4.22,3.62-6.03,6.94h.91c1.2-1.51,2.11-2.41,3.01-2.41s1.51,1.51,0,4.83l-4.53,9.65c-.9,1.81,0,3.02,1.81,3.02,1.21,0,1.51-.3,2.11-1.51l4.22-11.46c1.21-1.51,2.41-2.72,3.62-4.22h4.82ZM456.68,1331.36h-1.81l-1.81,1.81h-.3c-9.35,0-17.19,10.25-17.19,17.79,0,2.11,1.2,3.32,3.32,3.32,2.41,0,4.83-3.32,7.24-6.94v1.21c-.3,3.62.9,5.73,2.72,5.73,2.41,0,4.22-3.62,6.03-6.94h-.91c-1.2,1.51-2.11,2.41-3.01,2.41s-1.51-1.51,0-4.83l5.73-13.57ZM439.79,1347.95c0-5.13,5.43-11.76,8.75-11.76.6,0,1.2,0,1.81.3l-3.32,8.75c-1.81,2.41-4.82,5.13-6.03,5.13-.9-.3-1.2-.91-1.2-2.41M459.99,1335.28h3.62l-6.03,16.29c-.6,1.51.3,2.72,1.51,2.72,3.32,0,8.74-3.32,10.55-7.84h-.9c-1.51,1.51-4.53,3.62-6.94,4.22l5.43-15.08h5.43l.6-2.41h-5.43l2.11-5.73h-1.51l-3.92,5.73-4.53.6v1.51ZM486.53,1346.44h-1.51c-1.81,2.11-3.62,3.62-5.43,3.62s-3.02-1.21-3.02-3.62c0-.91,0-2.11.3-3.02l11.16-3.62c2.11-5.13-.3-7.54-3.62-7.54-5.43,0-11.46,8.75-11.46,16.59,0,3.62,1.81,5.43,4.22,5.43,3.62,0,6.64-3.02,9.35-7.84M482.61,1335.28c1.51,0,2.72,1.2,2.11,3.92l-6.93,1.51c1.2-3.01,3.32-5.43,4.82-5.43M507.64,1337.09c.91-2.72.3-4.83-1.81-4.83-2.41,0-3.02,1.81-5.43,6.94v-3.01c0-2.11-.6-3.93-2.72-3.93-2.41,0-4.22,3.62-6.03,6.94h.9c1.21-1.51,2.11-2.41,3.02-2.41s1.51,1.51,0,4.83l-4.53,9.65c-.9,1.81,0,3.02,1.81,3.02,1.21,0,1.51-.3,2.11-1.51l4.22-11.46c1.21-1.51,2.41-2.72,3.62-4.22h4.83ZM507.64,1351.27c-.9,1.81,0,3.02,1.81,3.02,1.21,0,1.51-.3,2.11-1.51l4.22-11.46c2.11-2.41,6.03-5.12,7.84-5.12,1.21,0,.91.9.3,2.41l-6.64,12.67c-.6,1.21.3,2.72,1.51,2.72,3.32,0,7.24-3.02,8.74-6.94h-.9c-.91,1.51-2.72,3.02-4.53,3.32l5.73-11.46c.6-1.51,1.21-2.71,1.21-3.92,0-1.81-.91-3.01-3.02-3.01-2.72,0-5.73,3.01-9.04,6.93v-3.01c0-2.11-.6-3.92-2.72-3.92-1.21,0-2.41.9-3.62,2.41v.3c2.11,0,3.01,3.02,1.51,6.33l-4.53,10.25ZM543.23,1326.54c1.51,0,2.72-1.2,2.72-2.71s-1.21-2.72-2.72-2.72-2.72,1.2-2.72,2.72,1.21,2.71,2.72,2.71M542.33,1334.68c.3-1.51-.6-2.41-1.2-2.41-3.32,0-6.94,3.02-8.75,6.94h.91c.9-1.51,2.71-3.01,4.52-3.32l-6.33,15.98c-.6,1.51.6,2.41,1.2,2.41,3.02,0,6.64-3.02,8.14-6.94h-.91c-.9,1.51-2.71,3.02-4.52,3.32l6.93-15.99ZM547.15,1335.28h3.62l-6.03,16.29c-.6,1.51.3,2.72,1.51,2.72,3.32,0,8.75-3.32,10.56-7.84h-.9c-1.51,1.51-4.53,3.62-6.94,4.22l5.43-15.08h5.43l.6-2.41h-5.43l2.11-5.73h-2.11l-3.92,5.73-4.53.6v1.51h.6ZM571.28,1330.15l7.84-7.24v-.91h-4.22l-4.83,8.14h1.2ZM573.69,1346.44h-1.51c-1.81,2.11-3.62,3.62-5.43,3.62s-3.01-1.21-3.01-3.62c0-.91,0-2.11.3-3.02l11.16-3.62c2.11-5.13-.3-7.54-3.62-7.54-5.43,0-11.46,8.75-11.46,16.59,0,3.62,1.81,5.43,4.22,5.43,3.62,0,6.63-3.02,9.35-7.84M569.77,1335.28c1.51,0,2.72,1.2,2.11,3.92l-6.94,1.51c1.21-3.01,3.32-5.43,4.83-5.43"/><path d="M449.14,991.76s.3,0,.6-.3h-1.2v-.3c-.6,0-1.51.3-2.11.6-.91.3-1.81.91-3.02,1.2-1.51.6-2.71,1.81-4.52,2.41v-.3c0-.3.6-.6.9-.9v-.3c1.21-1.51,2.72-2.41,3.92-3.62v-.3c.3-.6,1.21-.91,1.51-1.51,0-.3.6-.91,1.51-1.21,0,0-.3,0-.3-.3-.6,0-1.2.3-1.81,0,.3-.3.6-.3.9-.6,0,0-.3,0-.3-.3s.3-.6.6-.6c.6,0,1.21,0,1.81-.6-.9,0-2.11.3-3.01-.3.6-1.81,1.81-3.32,3.62-4.22h.3c0,.6-.3,1.2-1.2,1.51,1.2.3,2.11.3,3.32.9,0,.3-.3,0-.6,0,.6.3,1.51,0,2.11.6-.3.3-.9,0-1.2,0,4.22,1.2,8.75,2.11,12.37,5.13-3.02,1.51-6.33,2.11-9.66,3.01h-1.2v.3c-.6,0-.9,0-1.51.3-.6,0-1.21.3-1.81-.3M446.42,1001.41h0c-.6.3-1.2.91-1.51,1.21-.6.3-1.21.6-1.81.9h-.3c-.6.3-.91.6-1.51,1.21l-.3.3-.3.3-.3.3-.3.3h-.9c-.3,0-.3.3-.6.3-.3.3-.6.6-.91.91v-.3c0-.3.3-.3.3-.6v-.3l.3-.3q.3-.3.3-.6s0-.3.3-.3c0,0,0-.3.3-.3v-.91c.3-.3.3-.6.6-.6-.3,0-.3.3-.6.3,0,0-.3,0-.3-.3l.3-.3c.3-.3.3-.6.6-.6s.3-.3.3-.3l.3-.3c1.2-1.2,3.62-1.2,5.43-2.11.6-.3,1.51,0,2.11,0,.3,0,.91,0,1.21.3-.6.3-1.51,1.21-2.72,1.81M448.84,1002.62c0,.3-.3.3-.3.3q.3,0,.3.3c-.3.3-.6.6-.91.6h-.3l-.6.6c-.3,0-.91,0-.6-.3.3-.3.6-.6.91-.91l.6-.6.3-.3s.6,0,.6.3M442.5,981.81c0,.3-.3.3-.3.6s-.3.3-.6.6h-.3c0-.6.3-1.2,1.21-1.2,0-.3,0,0,0,0M431.04,990.86s-.3,0,0,0c1.81-2.71,3.02-4.82,4.22-7.24,1.81-.91,3.32-2.41,4.83-3.92,2.41-2.41,4.83-4.83,7.84-6.03,1.21-.3,2.41-.3,3.62,0-.3.6-1.21.3-1.81.9h-.3v-.3c-1.51,1.51-3.32,2.11-4.53,3.93-.91,1.51-1.51,3.32-3.32,3.62-.6,0,0-.3,0-.3-4.22,2.72-7.24,5.73-10.56,9.35M452.15,994.18h-.6c0-.6,1.2-.6,1.81-.91.3,0,.6-.3.9-.3.3.3.6.3.91.6-.91.6-2.11,0-3.02.6M473.26,1004.13l2.41-2.41c1.51-1.81,3.01-3.32,4.53-4.82.6-.6.9-.91,1.51-1.21,0,0,0-.3.3-.6-.6.3-1.21.91-1.81,1.21,0,0-.3,0,0-.3.6-.3.9-.6,1.51-1.2v-.3c-1.81-.3-3.32.9-4.53,2.11h-.6c-2.11.6-3.62,2.41-5.73,3.32v-.3c-.9.3-1.51.91-2.41.91-1.2.3-2.41,0-3.32,0-1.81.3-3.32.6-5.13.9-.9.3-1.81.6-2.71.91,0,0,0,.3-.3.3-.3.3-.6.6-.91.9-.9.3-1.51,1.21-2.41,1.81h-.3l-2.11,2.11h-.3c0-.3.3-.3.3-.6s.3-.3.3-.6c.3-.3.3-.6.6-.91v-.3h-.3c.6-.6,1.51-1.21,2.41-1.81h-.3l.3-.3c-.3,0-.6.3-.6.6-.3.3-.6.91-1.2.91h-.3v-.3s0-.3.3-.3v-.6c.3-.3.6-.6.91-.9.6-.3,1.2-.6,1.51-.91,0,0,.3,0,.3-.3-.91.3-1.51.6-2.11,1.21h-.6c0-.3.6-.3.91-.6h.3c4.53-3.32,10.56-2.72,15.69-4.53.3-.3.9-.6,1.2-.9.6-.3,1.21-.91,2.11-1.51,1.21-.91,1.81-1.81,2.41-3.32v-.3c-1.81,1.81-3.92,3.32-6.03,4.53-3.01,1.51-6.03,1.21-9.05,1.81,0-.3.3-.3.6-.3,0-.3.3-.6.6-.9h.3s0-.3.3-.3h.6c-.3-.6-1.2.3-1.81,0,.3-.3,0-.6.3-.91h.6c0-.3.3-.6.3-.6,2.11-1.21,3.92-2.11,6.03-3.32-.3,0-.6.3-1.21,0,.3,0,0-.3.3-.3,1.51-.3,2.72-1.2,4.22-1.81-.6,0-.91.3-1.51,0,.3,0,.3-.3.9-.3v-.3h.3-.3c0-.3.6,0,.91-.3h-.3c.3-.6,1.2-.6,1.81-.91,0-.3-.6,0-.6-.3h.3-.3c-.3,0,0-.3,0-.6.91-.91.91-2.11,1.21-3.32h-.3c-1.51,1.51-3.62,2.11-5.73,2.72h-.6c-.6.3-1.81.3-2.41,0-.6-.3-.9-.6-1.51-1.21-1.2-.6-2.11-1.2-3.32-1.81-3.32-1.2-6.94-1.81-10.56-1.51,1.51-.9,3.32-.9,4.82-1.51,2.41-.6,4.53-1.51,6.94-1.51h-1.51c-1.81,0-3.92.3-6.03.9-1.51.3-2.72.91-3.92,1.21-.91.3-1.21,1.2-2.11.9v-.3c1.51-1.81,3.01-3.32,5.12-3.32,2.41-.3,4.83,0,7.24.3,1.81,0,3.32.6,5.12.9.6,0,.91,1.21,1.51,1.21.91.3,1.81,0,2.41.6v-.9c.6-.6,1.21,0,1.81,0,1.21-.6-.9-1.81-1.51-3.02v-.3c1.2.91,1.81,2.11,3.32,2.72.6.3,2.41.6,2.11,0-.6-1.51-2.11-2.72-3.32-4.22v-.6q-.3,0-.3-.3v-.6c-.6-.3-.3-.91-.6-1.21-.3-.6,0-1.81-.3-2.41-.3-.91-.3-1.51-.6-2.41-.3-2.41-.91-4.53-1.21-6.64-.3-2.72,1.51-4.83,2.72-6.94.91-1.81,2.11-3.32,3.92-4.52.3-1.81,1.51-3.02,2.72-4.53,1.2-1.21,3.02-2.11,4.22-2.72,1.81-2.11,3.32-2.72,3.32-2.72h-95v73.29h67.26c2.71-1.81,5.12-2.72,9.04-4.53,1.81-.9,5.74-2.72,6.94-3.92"/><path d="M591.79,939.29h-79.02l.6.3c.6.3,1.51.9,2.11,1.2.9.6,2.11,1.21,2.72,2.11.3.3.6,1.21.3,1.81-.3.6-.3,1.81-1.2,2.11-.91.3-1.81.3-3.02.3-.6,0-1.2,0-1.81-.3,2.11.91,3.92,1.81,5.43,3.62,0,.3.6.3,1.2.3v.3c-.3.3-.6.3-.3.91h.91c.6-.3.6-1.81,1.51-1.21.6.3.91,1.51.6,2.11-.6.6-1.21.91-1.81,1.51v.9c.3.6.6,1.21.6,1.81.3.91.6,2.11.91,3.02.91,2.11,1.51,4.22,1.2,6.33,0,1.2-.6,2.11,0,3.32.3,1.21.91,1.81,1.51,3.02.6.9,1.2,1.51,1.51,2.11.91,1.51,2.41,2.71,1.81,4.53-.3.9-1.81.9-3.01,1.51-.91.6,0,1.81.3,2.41.6,1.2-.9,2.11-1.81,2.41.3.3.91.3.91.6,0,.6.9,1.21.3,1.81-.6.91-2.11,1.21-1.51,2.41.6.91.3,2.11,0,3.02-.3,1.2-1.51,1.81-2.41,2.11-.91.3-1.81.3-2.72,0-.3,0-.6-.3-.91-.3-2.41-.3-4.82-.91-6.93-.91-.6,0-1.51.3-1.81.6-.6.6-1.21.91-1.81,1.51l-.3.3-.3.3c-.3.6-.91.91-1.21,1.51v.3c-.6.91-.9,1.81-.9,2.41-.91,3.32-.6,6.03,0,6.64.3.3,4.53,1.51,7.54,3.01,1.51.6,2.41,1.21,3.32,1.51h77.51v-73.29Z"/><path d="M517.6,966.13c.6,0,1.51,0,1.51.3-.3,1.2-1.81,1.51-2.71,2.41h-.3c-.3.3-.3.9-.6.9h-1.2c.6.6,1.2.91,2.11.91,0,0,.3.3.3.6h.6v.6c-.3.6-1.2.3-1.81.3,1.2.3,2.11.3,3.32,0,.91-.3,0-1.81.6-2.41-.3,0,0-.3-.3-.3l.91-.9c.3,0,.6,0,.9-.3,0-.3-.6-.3-.3-.6.9-.6,1.51-1.51,1.2-2.11,0-.3-1.2-.3-1.81-.6-.6-.3-1.51,0-2.41,0-.6,0-1.51.3-2.11.6-1.81.3-2.41.91-3.32,1.21.9-.3,1.81-.6,3.01-.91.91.3,1.51,0,2.41.3"/><path d="M954.01,1183.88v-54.89h31.97v9.35h-20.81v12.67h17.79v9.35h-17.79v13.57h20.81v9.35h-31.97v.6ZM919.02,1138.34h-6.33v13.87h6.33c2.41,0,4.22-.6,5.43-1.81,1.21-1.21,2.11-3.02,2.11-5.13s-.6-3.62-2.11-4.82c-1.2-1.51-3.01-2.11-5.43-2.11M901.83,1183.88v-54.89h16.89c6.03,0,10.86,1.51,14.17,4.53,3.62,3.02,5.13,6.94,5.13,12.06,0,3.32-.91,6.04-2.41,8.45-1.51,2.41-3.62,4.22-6.33,5.72l17.19,24.43h-13.27l-14.48-22.32h-5.73v22.32h-11.16v-.3ZM876.2,1163.37v-34.39h11.16v33.48c0,7.24-2.11,12.67-6.03,16.89-3.92,4.22-9.35,6.03-16.29,6.03s-12.37-2.11-16.29-6.03c-3.92-4.22-6.03-9.65-6.03-16.89v-33.48h11.16v34.39c0,3.62.9,6.63,3.01,8.44,2.11,2.11,4.83,3.02,8.14,3.02s6.03-.91,8.14-3.02c2.11-2.11,3.02-4.82,3.02-8.44M788.43,1138.95v-10.26h44.94v10.26h-16.88v44.63h-11.16v-44.63h-16.89ZM757.97,1183.88v-54.89h11.16v44.64h20.8v10.25h-31.97ZM732.33,1163.37v-34.39h11.16v33.48c0,7.24-2.11,12.67-6.03,16.89-3.92,4.22-9.35,6.03-16.29,6.03s-12.37-2.11-16.29-6.03c-3.92-4.22-6.03-9.65-6.03-16.89v-33.48h11.16v34.39c0,3.62.91,6.63,3.02,8.44,2.11,1.81,4.82,3.02,8.14,3.02s6.03-.91,8.14-3.02c2.11-2.11,3.01-4.82,3.01-8.44M667.19,1174.83c3.01,0,6.03-.6,8.45-2.11,2.41-1.51,4.53-3.32,6.03-5.43l8.75,6.63c-2.41,3.32-5.73,6.04-9.66,8.14-3.92,2.12-8.45,3.02-13.27,3.02-4.22,0-8.14-.9-11.77-2.41-3.62-1.51-6.63-3.62-9.35-6.34-2.41-2.71-4.53-5.72-6.03-9.35-1.51-3.62-2.11-7.24-2.11-11.16s.6-7.54,2.11-11.16c1.51-3.62,3.32-6.64,6.03-9.35,2.41-2.72,5.73-4.83,9.35-6.33,3.62-1.51,7.54-2.41,11.77-2.41,4.82,0,9.35.91,13.27,3.02,3.92,2.11,7.24,4.83,9.66,8.14l-8.75,6.94c-1.51-2.11-3.62-3.93-6.03-5.43-2.41-1.51-5.13-2.11-8.45-2.11-2.41,0-4.83.6-7.24,1.51-2.41.9-3.92,2.41-5.73,3.92-1.81,1.51-2.72,3.62-3.62,6.03-.91,2.41-1.21,4.82-1.21,7.24,0,2.72.3,5.13,1.21,7.24.9,2.41,2.11,4.22,3.62,5.73s3.32,3.01,5.73,3.93c2.41.9,4.83,2.11,7.24,2.11M577.02,1160.06h15.08l-7.54-20.51-7.54,20.51ZM556.5,1183.88l20.81-54.89h14.48l20.81,54.89h-11.76l-5.13-14.17h-22.01l-5.12,14.17h-12.07ZM518.81,1183.88v-54.89h11.16v44.64h20.81v10.25h-31.97ZM452.15,1183.88v-54.89h31.97v9.35h-20.8v12.67h17.79v9.35h-17.79v13.57h20.8v9.35h-31.97v.6ZM411.74,1138.95h-10.56v34.68h10.56c2.41,0,4.82-.3,6.93-1.21,2.11-.9,3.92-2.11,5.43-3.62,1.51-1.51,2.72-3.32,3.62-5.43.9-2.11,1.2-4.53,1.2-6.64,0-2.41-.3-4.83-1.2-6.94-.91-2.11-2.11-3.92-3.62-5.43-1.51-1.51-3.32-2.72-5.43-3.62-2.11-1.2-4.22-1.8-6.93-1.8M390.02,1183.88v-54.89h21.42c4.22,0,8.45.6,12.06,2.11,3.62,1.51,6.64,3.32,9.35,6.03,2.41,2.41,4.53,5.43,6.03,8.75,1.51,3.32,2.11,6.94,2.11,10.56s-.6,7.24-2.11,10.56c-1.51,3.32-3.32,6.33-6.03,8.75-2.41,2.41-5.73,4.53-9.35,6.03-3.62,1.51-7.54,2.11-12.06,2.11h-21.42ZM773.95,1104.56v-54.89h31.97v9.35h-20.81v12.66h17.79v9.35h-17.79v13.58h20.81v9.35h-31.97v.6ZM738.97,1059.03h-6.33v13.87h6.33c2.41,0,4.22-.6,5.43-1.8,1.21-1.21,1.81-3.02,1.81-5.13s-.6-3.62-1.81-4.83c-1.2-1.51-3.01-2.11-5.43-2.11M721.78,1104.56v-54.89h16.89c6.03,0,10.86,1.51,14.17,4.52,3.62,3.02,5.13,6.94,5.13,12.07,0,3.32-.91,6.03-2.41,8.44-1.51,2.42-3.62,4.22-6.33,5.74l17.19,24.43h-13.27l-14.48-22.32h-5.73v22.32h-11.16v-.3ZM687.09,1044.85l-10.25-10.56h11.76l8.75,10.56h-10.25ZM675.94,1104.56v-54.89h31.97v9.35h-20.81v12.66h17.8v9.35h-17.8v13.58h20.81v9.35h-31.97v.6ZM620.74,1059.62v-10.25h44.94v10.25h-16.89v44.64h-11.16v-44.64h-16.89ZM575.81,1096.72l8.14-7.54c1.51,2.11,3.62,3.62,5.73,4.82,2.11,1.21,4.22,1.81,6.64,1.81,2.11,0,3.92-.6,5.13-1.81,1.2-1.2,1.81-2.72,1.81-4.53,0-2.41-1.21-4.22-3.92-5.73-2.72-1.2-5.43-2.72-8.75-4.22-3.02-1.51-6.03-3.32-8.75-5.73-2.72-2.41-3.92-5.73-3.92-10.25,0-2.11.3-4.22,1.2-6.03.91-1.81,2.11-3.62,3.62-5.13,1.51-1.51,3.32-2.71,5.43-3.32,2.11-.91,4.53-1.21,7.24-1.21,4.22,0,7.84.91,10.85,2.41,3.32,1.81,6.03,3.92,8.14,6.64l-8.14,7.24c-1.51-2.11-3.32-3.62-5.12-5.12-1.81-1.21-3.62-1.81-5.73-1.81-1.81,0-3.62.6-4.53,1.51-1.21,1.21-1.81,2.41-1.81,4.22,0,2.41,1.2,4.22,3.92,5.73,2.71,1.21,5.43,2.72,8.75,4.22,3.01,1.51,6.03,3.32,8.74,5.74,2.72,2.41,3.92,6.03,3.92,10.56,0,2.41-.6,4.82-1.51,6.93-.9,2.12-2.41,3.62-3.92,5.13-1.51,1.51-3.62,2.41-5.73,3.32-2.11.91-4.53,1.21-6.94,1.21-4.53,0-8.45-.91-11.76-2.41-3.32-1.51-6.33-3.62-8.75-6.64M553.49,1049.67h11.16v54.89h-11.16v-54.89ZM487.74,1104.56v-54.89h14.17l24.43,39.21v-39.21h11.16v54.89h-14.18l-24.43-39.5v39.5h-11.16ZM460.6,1049.67h11.16v54.89h-11.16v-54.89ZM390.02,1104.56v-54.89h14.17l12.97,22.62,13.27-22.62h14.18v54.89h-11.16v-39.21l-12.37,20.21h-7.84l-12.37-20.21v38.91h-10.86v.3Z"/><path d="M1188,505.92c-16,0-28,11.2-28,27s12.4,27.2,28,27.2h14.8c11.8,0,18.8,6.2,18.8,20.6,0,10.6-7.6,17.2-18.4,17.2s-18.6-6.6-18.6-17.2c0-9.8-7.4-14.8-14.8-14.8s-14.8,5-14.8,14.8c0,29.8,23.2,46.8,48.2,46.8s48-17,48-46.8c0-21.4-10-38.4-27.2-46,14.6-4.4,13-28.8-5-28.8h-31ZM1065.8,505.92c-19.8,0-19.8,29,0,29h13.4v61h-12.8c-19.8,0-19.8,29.2,0,29.2h61c19.8,0,19.8-29.2,0-29.2h-18.6v-61h23c19.8,0,19.8-29,0-29h-26.6c2.2-8.6,7.8-12.6,18.2-12.6,2.8,0,6.2.4,10,1,19.4,3.6,24.8-25.4,5.4-29-5.4-1-10.6-1.6-15.4-1.6-27.2,0-45,15.8-48.6,42.2h-9ZM972.6,505.92c-19.6,0-19.8,29,0,29h11.2v43.8c0,30,17.4,48.8,44.6,48.8,19.8,0,19.8-29.6,0-29.6-8.6,0-15-3.2-15-19.2v-58c0-7.8-6.8-14.6-14.8-14.8h-26ZM1022.2,474.92c0-11.4-9.2-20.8-20.8-20.8s-20.8,9.4-20.8,20.8,9.4,20.8,20.8,20.8,20.8-9.4,20.8-20.8M933,627.72c19.8,0,19.8-29.6,0-29.6-10.2,0-18.8-6-18.8-21.8v-41.4h21.6c21,0,21-29,0-29h-23c2.6-5.4,4-11.8,4-18.8,0-10-7.4-14.8-14.8-14.8s-14.8,4.8-14.8,14.8c0,12-7,18.8-19.2,18.8-20.6.4-20.4,29,.4,29h16.2v41.4c0,32.8,21.6,51.4,48.4,51.4M776.6,577.92c0-17,7.6-20.8,14.4-20.8s14.2,3.8,14.2,20.8-7.4,20.6-14.2,20.6-14.4-3.6-14.4-20.6M747,577.92c0,31.2,17.6,49.6,43,49.6,10,0,18.4-3,25-8.4,4.4,5.2,10.8,8.4,19.4,8.4,16.6,0,29-12,29-27.8,0-12.8-7.8-18.4-15.4-18.4-6,0-12.2,3.6-14,11.2l-.2-27.2c0-39.8-24.6-62-53.2-62-24,0-45.4,13.6-52.4,38.2-3.2,11.2,5.8,18.8,14.6,18.8,2.4,0,4.8-.6,7-1.8-1.8,5.8-2.8,12.2-2.8,19.4M630.8,505.92c-19.8,0-19.8,29,0,29h11v61.6h-13.4c-19.8,0-19.8,28.4,0,28.4h67.4c19.6,0,19.6-28.4,0-28.4h-24.4v-39c0-16.8,7.6-22.6,18.2-22.6h16.6c19.6,0,19.6-29,0-29h-16.6c-8.4,0-15.6,2.2-21.4,5.8-2.8-3.6-7-5.8-11.6-5.8h-25.8ZM526.8,565.32c0-24.4,11.4-33,24-33s24,8.6,24,33-11.4,33.2-24,33.2-24-8.8-24-33.2M604.4,565.32c0-36-20.4-62-53.6-62s-53.6,26-53.6,62,20.4,62.2,53.6,62.2,53.6-26.2,53.6-62.2M431.2,598.52c-14,0-25.6-11.4-25.6-33.2,0-29,9.6-33.2,14.6-33.2s10.8,4.4,10.8,18.6c0,10.4,7.4,15.6,14.8,15.6,3.6,0,7.2-1.4,10-3.8-.2.8-.2,1.8-.2,2.8,0,23.8-11.8,33.2-24.4,33.2M418.4,503.12c-30.8,0-42.4,29.2-42.4,62.2,0,36,21,62.2,54.6,62.2s54.6-26.2,54.6-62.2c0-9.8-7.4-14.8-14.8-14.8-3.8,0-7.4,1.2-10.2,3.6.2-1,.4-2.2.4-3.4v-32.6c0-10-7.4-15-15-15-3.8,0-7.6,1.2-10.4,4-4.4-2.6-10-4-16.8-4M311.4,553.32c0,13.2-5.4,21.2-14.2,21.2s-14.2-8-14.2-21.2,5.4-21,14.2-21,14.2,7.8,14.2,21M296,503.32c-27.2.6-42.6,22.8-42.6,50v15c2.2,33.6,23.6,59.2,56.4,59.2,26.8,0,47.8-17.4,53.4-45.6,2.2-11.2-6.4-17.8-14.8-17.8-3.2,0-6.2.8-8.8,2.8,1-4.2,1.4-8.8,1.4-13.6,0-12.6-3.4-24.4-10-33.4,8.4-6.8,14.2-16.6,15.2-28.8,1-10.8-7-17-14.8-17-6.4,0-12.8,4.2-14,13.6-1,7.6-7.4,15-21.4,15.6M178.4,598.52c-12.4,0-24-8.6-24-33.2s11.4-33.2,24-33.2,24.4,9,24.4,33.2-11.8,33.2-24.4,33.2M177.6,503.12c-32.4,0-52.8,26.2-52.8,62.2s21.4,62.2,52,62.2c12,0,21.2-4,27.6-9.2,2.4,5.4,7.8,8.2,13.2,8.2,7.4,0,14.6-5,14.6-14.8v-132.4c0-9.8-7.4-14.2-14.8-14.2s-14.8,4.4-14.8,14.2v31.2c-6.6-4.6-14.6-7.4-25-7.4"/><path d="M1054.8,335.92c-16,0-28,11.2-28,27s12.4,27.2,28,27.2h14.8c11.8,0,18.8,6.2,18.8,20.6,0,10.6-7.6,17.2-18.4,17.2s-18.6-6.6-18.6-17.2c0-9.8-7.4-14.8-14.8-14.8s-14.8,5-14.8,14.8c0,29.8,23.2,46.8,48.2,46.8s48-17,48-46.8c0-21.4-10-38.4-27.2-46,14.6-4.4,13-28.8-5-28.8h-31ZM994.6,457.72c19.8,0,19.8-29.6,0-29.6-10.2,0-18.8-6-18.8-21.8v-41.4h21.6c21,0,21-29,0-29h-23c2.6-5.4,4-11.8,4-18.8,0-10-7.4-14.8-14.8-14.8s-14.8,4.8-14.8,14.8c0,12-7,18.8-19.2,18.8-20.6.4-20.4,29,.4,29h16.2v41.4c0,32.8,21.6,51.4,48.4,51.4M820,335.92c-19.8,0-19.8,29,0,29h11v61.6h-13.4c-19.8,0-19.8,28.4,0,28.4h67.4c19.6,0,19.6-28.4,0-28.4h-24.4v-39c0-16.8,7.6-22.6,18.2-22.6h16.6c19.6,0,19.6-29,0-29h-16.6c-8.4,0-15.6,2.2-21.4,5.8-2.8-3.6-7-5.8-11.6-5.8h-25.8ZM708.8,407.92c0-17,7.6-20.8,14.4-20.8s14.2,3.8,14.2,20.8-7.4,20.6-14.2,20.6-14.4-3.6-14.4-20.6M679.2,407.92c0,31.2,17.6,49.6,43,49.6,10,0,18.4-3,25-8.4,4.4,5.2,10.8,8.4,19.4,8.4,16.6,0,29-12,29-27.8,0-12.8-7.8-18.4-15.4-18.4-6,0-12.2,3.6-14,11.2l-.2-27.2c0-39.8-24.6-62-53.2-62-24,0-45.4,13.6-52.4,38.2-3.2,11.2,5.8,18.8,14.6,18.8,2.4,0,4.8-.6,7-1.8-1.8,5.8-2.8,12.2-2.8,19.4M539.8,335.92c-16,0-28,11.2-28,27s12.4,27.2,28,27.2h14.8c11.8,0,18.8,6.2,18.8,20.6,0,10.6-7.6,17.2-18.4,17.2s-18.6-6.6-18.6-17.2c0-9.8-7.4-14.8-14.8-14.8s-14.8,5-14.8,14.8c0,29.8,23.2,46.8,48.2,46.8s48-17,48-46.8c0-21.4-10-38.4-27.2-46,14.6-4.4,13-28.8-5-28.8h-31ZM444.6,383.32c0,13.2-5.4,21.2-14.2,21.2s-14.2-8-14.2-21.2,5.4-21,14.2-21,14.2,7.8,14.2,21M474.2,383.32c0-27.4-16-50-43.8-50s-43.8,22.4-43.8,50v15c2.2,33.6,23.6,59.2,56.4,59.2,26.8,0,47.8-17.4,53.4-45.6,2.2-11.2-6.4-17.8-14.8-17.8-3.2,0-6.2.8-8.8,2.8,1-4.2,1.4-8.8,1.4-13.6M311.61,428.52c-12.4,0-24-8.6-24-33.2s11.4-33.2,24-33.2,24.4,9,24.4,33.2-11.8,33.2-24.4,33.2M310.81,333.12c-32.4,0-52.8,26.2-52.8,62.2s21.4,62.2,52,62.2c12,0,21.2-4,27.6-9.2,2.4,5.4,7.8,8.2,13.2,8.2,7.4,0,14.6-5,14.6-14.8v-132.4c0-9.8-7.4-14.2-14.8-14.2s-14.8,4.4-14.8,14.2v31.2c-6.6-4.6-14.6-7.4-25-7.4"/><path d="M911.39,213.32c0,13.2-5.4,21.2-14.2,21.2s-14.2-8-14.2-21.2,5.4-21,14.2-21,14.2,7.8,14.2,21M940.99,213.32c0-27.4-16-50-43.8-50s-43.8,22.4-43.8,50v15c2.2,33.6,23.6,59.2,56.4,59.2,26.8,0,47.8-17.4,53.4-45.6,2.2-11.2-6.4-17.8-14.8-17.8-3.2,0-6.2.8-8.8,2.8,1-4.2,1.4-8.8,1.4-13.6M815,139.92c0-10.2-7.4-15.4-14.8-15.4s-14.8,5.2-14.8,15.4v96.8c0,32.6,18,50.8,45.6,50.8,20.8,0,20.8-29.6,0-29.6-10,0-16-4.4-16-21.2v-96.8ZM688,225.32c0-24.4,11.4-33,24-33s24,8.6,24,33-11.4,33.2-24,33.2-24-8.8-24-33.2M765.6,225.32c0-36-20.4-62-53.6-62s-53.6,26-53.6,62,20.4,62.2,53.6,62.2,53.6-26.2,53.6-62.2M592.4,258.52c-14,0-25.6-11.4-25.6-33.2,0-29,9.6-33.2,14.6-33.2s10.8,4.4,10.8,18.6c0,10.4,7.4,15.6,14.8,15.6,3.6,0,7.2-1.4,10-3.8-.2.8-.2,1.8-.2,2.8,0,23.8-11.8,33.2-24.4,33.2M579.6,163.12c-30.8,0-42.4,29.2-42.4,62.2,0,36,21,62.2,54.6,62.2s54.6-26.2,54.6-62.2c0-9.8-7.4-14.8-14.8-14.8-3.8,0-7.4,1.2-10.2,3.6.2-1,.4-2.2.4-3.4v-32.6c0-10-7.4-15-15-15-3.8,0-7.6,1.2-10.4,4-4.4-2.6-10-4-16.8-4M472.6,213.32c0,13.2-5.4,21.2-14.2,21.2s-14.2-8-14.2-21.2,5.4-21,14.2-21,14.2,7.8,14.2,21M457.2,163.32c-27.2.6-42.6,22.8-42.6,50v15c2.2,33.6,23.6,59.2,56.4,59.2,26.8,0,47.8-17.4,53.4-45.6,2.2-11.2-6.4-17.8-14.8-17.8-3.2,0-6.2.8-8.8,2.8,1-4.2,1.4-8.8,1.4-13.6,0-12.6-3.4-24.4-10-33.4,8.4-6.8,14.2-16.6,15.2-28.8,1-10.8-7-17-14.8-17-6.4,0-12.8,4.2-14,13.6-1,7.6-7.4,15-21.4,15.6"/><path d="M329.8,861.92c7.6,1.2,14.4-4.2,15.6-12,2.4-18,16.2-31.6,34-29,7.6,1,14.4-4.2,15.6-12,1-7.8-4-14.8-11.6-15.8-12.2-1.8-21.6-.4-30.6,4.4-.4-6.4-5.4-11.8-12-12.6-6.8-.8-13,2.8-15,9-7.4-7.2-15.8-11-28.4-12.8-7.2-1-14.2,4.2-15.4,12-1,7.6,4.2,14.6,11.6,15.6,17.8,2.6,27.4,19.4,24.8,37.4-1.2,7.8,4,14.8,11.4,15.8M442.8,831.32c7.6-.8,13-7.6,12.2-15.4-2-18,8.2-34.6,26-36.4,7.6-.8,13-7.6,12-15.4-.8-7.8-7.4-13.4-15-12.6-12.2,1.4-21,5-28.6,11.8-2-6.2-8-10.2-14.6-9.4-6.8.8-12,5.8-12.4,12.2-8.8-5-18-6.8-30.6-5.4-7.4.8-13,7.6-12,15.2.8,7.8,7.6,13.4,15,12.6,17.8-1.8,31.2,12.2,33,30.2.8,7.8,7.4,13.4,15,12.6M379.6,755.72c7.6,0,13.6-6.2,13.6-14,0-18.2,11.8-33.6,29.8-33.6,7.4,0,13.6-6.2,13.6-14s-6.2-14-13.6-14c-12.6,0-21.6,2.8-29.8,8.8-1.2-6.4-6.8-11-13.6-11s-12.4,4.4-13.6,11c-8.2-6-17.4-8.8-29.8-8.8-7.6,0-13.6,6.2-13.6,14s6,14,13.6,14c18,0,29.8,15.4,29.8,33.6,0,7.8,6,14,13.6,14"/><path d="M938.2,692.23v164.61h164.61v-164.61h-164.61ZM1020.23,854.55c-16.44-.16-32.48-5.25-45.98-14.74-.12-.09-.24-.18-.37-.27l46.34-33.85v48.86ZM1020.63,805.59l46.22,34.11c-13.05,9.29-28.99,14.79-46.22,14.85v-48.96ZM1067.64,839.15c-.4-1.43-1.05-2.86-1.57-4.29l1.56,4.3c-.23.16-.46.32-.68.48-6.55-20.8-25.68-34.09-46.32-34.22v-.05h-.4v.05c-4.79.01-9.66.73-14.47,2.23-15.25,4.68-27.15,16.57-32,31.8-.23-.17-.45-.34-.68-.51l1.45-4.21c-.66,1.33-1.19,2.65-1.59,4.11-3.18-2.34-6.14-4.88-8.87-7.58l17.28-17.28-6.96,20.76c7.91-18.36,25.87-30.16,45.84-30.16,5.9,0,11.8,1.07,17.29,3.08-18.23-12.87-22.65-38.07-9.79-56.43,2.28-3.22,4.96-6.17,8.18-8.58l-15.24-48.25c21.96.05,41.83,8.95,56.26,23.32l-16.3,16.3c-8.67.05-17.38,2.86-24.71,8.63l.27.8c6.69-5.27,14.98-8.31,23.57-8.55l-14.61,14.61-7.22-.02-1.88-5.9c-17.16,13.67-19.97,38.61-6.3,55.76,7.1,8.98,17.83,14.34,29.22,14.88l-.43-1.29,1.29,1.29h-.86l.4.8h1.26l16.27,16.24c-2.88,2.86-5.98,5.49-9.27,7.89ZM944.41,749.5l33.82,24.76h-37.77c.01-8.32,1.3-16.68,3.95-24.76ZM1002.67,749.47h-6.87l-31.8-31.75c14.84-14.8,35.04-23.3,56.33-23.34l-17.65,55.09ZM995.07,749.47h-50.65c2.42-7.37,5.96-14.52,10.67-21.18,2.6-3.69,5.48-7.11,8.6-10.25l31.38,31.43ZM978.78,774.67l12.63,9.25-9.73,29.03-17.95,17.95c-15.16-15.21-23.19-35.58-23.27-56.24h38.32ZM1100.47,776.63c-.61,11.82-6.45,23.23-16.97,30.48-6.7,4.69-14.61,7.1-22.79,7.1h-.19l-2.33-2.34-9.27-27.69,13.04-9.45,38.57.07c0,.61-.03,1.22-.05,1.83ZM1061.31,815c18.24-.21,33.54-12.42,38.4-29.12-2.49,17.48-10.61,33.13-22.49,45.05l-15.91-15.94ZM1099.72,763.24c-1.22-4.22-3.11-8.23-5.63-11.9l2.47-1.73c1.43,4.39,2.5,8.94,3.16,13.63ZM1092.75,749.47l.02.03s-.02-.02-.03-.03h-1.07c.67.8,1.21,1.61,1.74,2.41h0c4.38,6.31,6.68,13.47,7.05,20.63.02.63.05,1.25.05,1.88l-38.01-.07,30.78-22.32c-.54-.8-1.21-1.61-1.74-2.41l-45.73-.11,14.62-14.62c.14,0,.27,0,.41,0,11.93,0,23.32,5.36,30.83,14.61h1.07c-7.89-10.04-19.6-15.34-31.45-15.46l15.97-15.97c8.67,8.74,15.32,19.46,19.25,31.43h-3.76ZM1077.83,716.8c-12.65-12.56-29.41-20.98-48.1-23.1h71.19l-23.1,23.1ZM963.05,716.77l-23.11-23.07h71.13c-18.62,2.11-35.37,10.51-48.01,23.07ZM962.74,717.09c-12.38,12.43-20.76,28.85-23.07,47.17v-70.29l23.07,23.11ZM939.67,785.03c2.3,18.21,10.63,34.56,22.96,46.97l-22.96,22.96v-69.93ZM962.97,832.33c2.93,2.91,6.08,5.6,9.43,8.04-1.27,4.56-2.03,9.24-2.03,13.91v1.07h-30.43l23.03-23.03ZM971.17,854.29c0-4.62.65-9.12,1.83-13.48,10.71,7.68,23.35,12.82,37.07,14.55h-38.9v-1.07ZM1067.34,841.16c1.19,4.22,1.69,8.67,1.69,12.99v1.21h-38.24c13.25-1.7,25.78-6.62,36.55-14.2ZM1068.06,840.66c3.49-2.52,6.79-5.32,9.87-8.38l23.13,23.08h-31.23v-1.21c0-4.54-.63-9.08-1.77-13.5ZM1078.24,831.96c3.17-3.19,6.1-6.65,8.74-10.38,8.12-11.51,13.1-25.01,14.47-38.98v72.63l-23.22-23.26ZM1078.17,717.13l23.29-23.29v72.44c-1.91-19.09-10.44-36.26-23.29-49.15Z"/><path d="M1047.84,812.87c8.04,5.36,14.34,13,18.1,21.98l-6.57-19.84c-3.89-.13-7.91-.8-11.53-2.15Z"/><path d="M568.1,709.79v60.86h37c21.18,0,32.17-12.73,32.17-30.43s-10.99-30.43-32.17-30.43h-37ZM656.97,739.95c0,27.88-19.7,48.12-51.34,48.12h-37.53v68.77h-18.9v-164.47h56.43c31.5,0,51.21,19.97,51.34,47.59"/><path d="M778.55,717.56l-13.94,10.72c-8.45-13.27-22.12-20.64-36.73-20.64s-28.42,7.78-28.42,23.86c0,15.01,11.13,20.38,25.74,27.61l17.69,8.71c23.32,11.53,37.4,23.73,37.4,45.84,0,27.61-22.12,45.84-51.74,45.84-25.6,0-46.78-13.67-59.11-35.39l14.07-10.72c9.79,15.15,24.13,28.15,44.77,28.15,18.9,0,32.3-10.72,32.3-27.35,0-15.28-10.99-21.18-26.81-28.95l-17.96-8.71c-18.77-9.25-36.19-20.91-36.19-44.1,0-26.14,22.39-42.9,48.39-42.9,20.78,0,39.81,10.59,50.54,28.02"/><polygon points="814.2 692.36 814.2 856.84 909.38 856.84 909.38 839.41 833.24 839.41 833.24 692.36 814.2 692.36"/></svg>